<mxfile host="app.diagrams.net" modified="2024-05-17T16:22:52.579Z" agent="Mozilla/5.0 (Windows NT 10.0; Win64; x64) AppleWebKit/537.36 (KHTML, like Gecko) Chrome/123.0.0.0 Safari/537.36 OPR/109.0.0.0" version="24.4.3" etag="JLNgbDQ8kCEH6mGiTyTZ" type="github">
  <diagram name="Page-1" id="akKm8n5UOTCwbvX87_9z">
    <mxGraphModel>
      <root>
        <mxCell id="0" />
        <mxCell id="1" parent="0" />
      </root>
    </mxGraphModel>
  </diagram>
</mxfile>
